<svg width="35" height="34" viewBox="0 0 35 34" fill="none" xmlns="http://www.w3.org/2000/svg">
<path fill-rule="evenodd" clip-rule="evenodd" d="M17.4438 23.4281C13.8628 23.4281 10.9198 20.5211 10.9198 16.9041C10.9198 13.2871 13.8628 10.3791 17.4438 10.3791C21.0248 10.3791 23.9678 13.3231 23.9678 16.9041C23.9678 20.4851 21.0248 23.4281 17.4438 23.4281ZM17.4438 8.14612C12.6218 8.14612 8.68579 12.0811 8.68579 16.9041C8.68579 21.7261 12.6218 25.6611 17.4438 25.6611C22.2658 25.6611 26.2018 21.7261 26.2018 16.9041C26.2018 12.0811 22.2658 8.14612 17.4438 8.14612Z" fill="black"/>
<path fill-rule="evenodd" clip-rule="evenodd" d="M17.4438 5.73467C18.0818 5.73467 18.5788 5.23867 18.5788 4.59967V1.19567C18.5788 0.557669 18.0818 0.0606689 17.4438 0.0606689C16.8058 0.0606689 16.3088 0.557669 16.3088 1.19567V4.63467C16.3088 5.23867 16.8058 5.73467 17.4438 5.73467Z" fill="black"/>
<path fill-rule="evenodd" clip-rule="evenodd" d="M7.94079 8.9964C8.15379 9.2094 8.43779 9.3154 8.72079 9.3154C9.00479 9.3154 9.28879 9.2094 9.50179 8.9964C9.92679 8.5714 9.92679 7.8264 9.50179 7.4004L7.08979 4.9894C6.66479 4.5644 5.91979 4.5644 5.49479 4.9894C5.06879 5.4154 5.06879 6.1604 5.49479 6.5854L7.94079 8.9964Z" fill="black"/>
<path fill-rule="evenodd" clip-rule="evenodd" d="M6.27432 16.9037C6.27432 16.2657 5.77832 15.7687 5.14032 15.7687H1.73532C1.09732 15.7687 0.601318 16.2657 0.601318 16.9037C0.601318 17.5427 1.09732 18.0387 1.73532 18.0387H5.17532C5.77832 18.0387 6.27432 17.5427 6.27432 16.9037Z" fill="black"/>
<path fill-rule="evenodd" clip-rule="evenodd" d="M7.94093 24.8108L5.52993 27.2218C5.10493 27.6478 5.10493 28.3918 5.52993 28.8178C5.74293 29.0308 6.02593 29.1368 6.30993 29.1368C6.59393 29.1368 6.87793 29.0308 7.08993 28.8178L9.50193 26.4068C9.92693 25.9808 9.92693 25.2368 9.50193 24.8108C9.11093 24.3498 8.40193 24.3498 7.94093 24.8108Z" fill="black"/>
<path fill-rule="evenodd" clip-rule="evenodd" d="M17.4438 28.0725C16.8058 28.0725 16.3088 28.5695 16.3088 29.2075V32.6465C16.3088 33.2855 16.8058 33.7815 17.4438 33.7815C18.0818 33.7815 18.5788 33.2855 18.5788 32.6465V29.2075C18.5788 28.5695 18.0818 28.0725 17.4438 28.0725Z" fill="black"/>
<path fill-rule="evenodd" clip-rule="evenodd" d="M26.9467 24.8108C26.5207 24.3848 25.7767 24.3848 25.3507 24.8108C24.9257 25.2368 24.9257 25.9808 25.3507 26.4068L27.7617 28.8178C27.9747 29.0308 28.2587 29.1368 28.5417 29.1368C28.8257 29.1368 29.1097 29.0308 29.3217 28.8178C29.7477 28.3918 29.7477 27.6478 29.3217 27.2218L26.9467 24.8108Z" fill="black"/>
<path fill-rule="evenodd" clip-rule="evenodd" d="M33.1516 15.7689H29.7126C29.0736 15.7689 28.5776 16.2659 28.5776 16.9039C28.5776 17.5419 29.0736 18.0389 29.7126 18.0389H33.1516C33.7896 18.0389 34.2856 17.5419 34.2856 16.9039C34.2856 16.2659 33.7896 15.7689 33.1516 15.7689Z" fill="black"/>
<path fill-rule="evenodd" clip-rule="evenodd" d="M26.1308 9.35092C26.4148 9.35092 26.6978 9.24492 26.9108 9.03292L29.3218 6.62192C29.7478 6.19592 29.7478 5.45092 29.3218 5.02592C28.8968 4.59992 28.1518 4.59992 27.7268 5.02592L25.3158 7.43692C24.8898 7.86192 24.8898 8.60692 25.3158 9.03292C25.5638 9.24492 25.8468 9.35092 26.1308 9.35092Z" fill="black"/>
</svg>
