<svg width="17" height="16" viewBox="0 0 17 16" fill="none" xmlns="http://www.w3.org/2000/svg">
<path fill-rule="evenodd" clip-rule="evenodd" d="M15.9598 15.0961L11.8018 10.9391C12.8348 9.79812 13.4698 8.28912 13.4698 6.62912C13.4698 3.07712 10.5898 0.19812 7.03781 0.19812C3.48581 0.19812 0.606812 3.07712 0.606812 6.62912C0.606812 10.1811 3.48581 13.0611 7.03781 13.0611C8.69881 13.0611 10.2068 12.4261 11.3478 11.3931L15.5048 15.5511C15.6308 15.6761 15.8348 15.6761 15.9598 15.5511C16.0848 15.4251 16.0848 15.2221 15.9598 15.0961ZM1.24981 6.62912C1.24981 3.43312 3.84181 0.84112 7.03781 0.84112C10.2348 0.84112 12.8268 3.43312 12.8268 6.62912C12.8268 9.82512 10.2348 12.4171 7.03781 12.4171C3.84181 12.4171 1.24981 9.82512 1.24981 6.62912Z" fill="#A0A0A0"/>
</svg>
