<svg width="173" height="62" viewBox="0 0 173 62" fill="none" xmlns="http://www.w3.org/2000/svg">
<path fill-rule="evenodd" clip-rule="evenodd" d="M33.4164 5.15173C34.2904 5.01673 43.2684 4.96173 47.1424 5.06273C47.3234 5.06773 47.5034 5.09973 47.6894 5.11973C47.8034 5.43273 47.8324 5.69373 47.6504 5.99973C47.3914 6.01173 47.1164 6.02573 46.8404 6.04073C45.5044 6.10973 44.5764 7.02973 44.4934 8.37373C44.4784 8.62373 44.4874 8.87473 44.4874 9.12473V40.9427C44.4874 41.1937 44.4824 41.4437 44.4914 41.6937C44.5294 42.8897 45.4044 43.9577 46.7294 44.0387C47.0364 44.0577 47.3434 44.0777 47.6224 44.0957C47.8414 44.3977 47.8044 44.6617 47.6924 44.9467C47.6134 44.9787 47.5314 45.0357 47.4454 45.0417C47.1964 45.0577 46.9454 45.0567 46.6954 45.0567C41.9714 45.0577 37.2464 45.0577 32.5224 45.0557C32.2134 45.0557 31.9044 45.0367 31.6214 45.0267C31.3974 44.7337 31.4384 44.4667 31.5324 44.1777C31.6084 44.1447 31.6884 44.0867 31.7724 44.0777C32.0834 44.0467 32.3984 44.0497 32.7074 44.0057C33.8164 43.8407 34.6234 42.9647 34.6984 41.8417C34.7194 41.5307 34.7054 41.2167 34.6984 40.9037C34.5794 35.3997 34.4574 29.8947 34.3364 24.3897C34.2184 19.0097 34.1024 13.6307 33.9824 8.25173C33.9784 8.04273 33.9534 7.83473 33.9384 7.63273C33.8594 7.63273 33.8224 7.62273 33.7984 7.63573C33.7744 7.64873 33.7624 7.68473 33.7484 7.71373C33.7184 7.76873 33.6904 7.82473 33.6654 7.88073C33.6394 7.93773 33.6164 7.99673 33.5954 8.05473C29.1474 20.2757 24.7004 32.4957 20.2524 44.7147C20.2314 44.7737 20.2024 44.8307 20.1724 44.8837C20.1584 44.9107 20.1314 44.9297 20.0624 45.0047H19.2064C18.9294 44.7547 18.8764 44.3987 18.7574 44.0837C16.1884 37.3007 13.6254 30.5167 11.0624 23.7317C9.17245 18.7317 7.28645 13.7297 5.39545 8.72873C5.27845 8.42073 5.13945 8.11873 4.88145 7.83773C4.86945 8.13173 4.84645 8.42673 4.84645 8.72273C4.84345 12.1017 4.84445 15.4807 4.84445 18.8597V39.9777C4.84445 40.2917 4.85145 40.6037 4.84845 40.9177C4.82945 42.7237 5.99245 43.6287 7.36245 43.9657C7.57145 44.0177 7.78545 44.0507 7.96545 44.0877C8.16445 44.3897 8.13745 44.6567 8.01345 44.9747C7.23545 45.1517 6.42545 45.0327 5.62445 45.0527C4.77945 45.0747 3.93445 45.0617 3.08945 45.0557C2.28045 45.0517 1.47045 45.0817 0.697447 45.0347C0.438447 44.7367 0.571447 44.4587 0.549447 44.1507C0.781447 44.0907 0.983447 44.0217 1.19145 43.9907C1.69745 43.9127 2.14845 43.7087 2.57045 43.4297C3.26645 42.9697 3.66545 42.3237 3.74645 41.4957C3.78545 41.0917 3.79645 40.6837 3.79745 40.2777C3.79945 29.8587 3.79945 19.4407 3.79745 9.02173C3.79745 8.70973 3.79645 8.39473 3.75945 8.08573C3.62445 6.98473 2.74445 6.14573 1.63545 6.04873C1.29945 6.01973 0.961447 6.01473 0.575447 5.99673C0.559447 5.70373 0.546447 5.46373 0.533447 5.21873C0.640447 5.16573 0.718447 5.09673 0.802447 5.08973C1.05045 5.06673 1.30145 5.06173 1.55145 5.06173C5.24345 5.05973 8.93445 5.05973 12.6264 5.06173C12.9354 5.06173 13.2434 5.08373 13.6014 5.09673C16.8864 13.8377 20.1604 22.5507 23.4624 31.3377C23.7974 31.0577 23.8414 30.7137 23.9504 30.4227C25.5414 26.1777 27.1224 21.9297 28.7054 17.6827C30.1584 13.7867 31.6114 9.89073 33.0664 5.99673C33.1754 5.70573 33.3044 5.42173 33.4164 5.15173Z" fill="black"/>
<path fill-rule="evenodd" clip-rule="evenodd" d="M120.633 30.4007C120.633 32.9647 120.654 35.5297 120.619 38.0937C120.611 38.7587 120.764 39.3177 121.17 39.8277C121.715 40.5107 122.217 41.2327 122.806 41.8777C123.223 42.3337 123.732 42.7137 124.235 43.0797C124.953 43.6007 125.781 43.7117 126.65 43.6067C127.423 43.5127 128.021 43.1417 128.346 42.4377C128.592 41.9037 128.792 41.3367 128.929 40.7637C129.185 39.6987 129.317 38.6087 129.324 37.5107C129.35 33.8837 129.37 30.2567 129.373 26.6297C129.375 25.1297 129.347 23.6277 129.133 22.1367C129 21.2067 128.848 20.2807 128.404 19.4357C127.771 18.2317 126.787 17.7557 125.453 17.9717C124.564 18.1167 123.79 18.5027 123.09 19.0477C122.345 19.6287 121.722 20.3267 121.135 21.0627C120.768 21.5237 120.615 22.0137 120.621 22.6137C120.649 25.2097 120.633 27.8047 120.633 30.4007ZM107.345 44.8547C107.369 44.4837 107.386 44.2137 107.408 43.8817C107.86 43.8667 108.261 43.8527 108.663 43.8407C109.145 43.8277 109.586 43.6977 109.974 43.4027C110.504 42.9997 110.777 42.4557 110.857 41.8067C110.879 41.6217 110.872 41.4317 110.872 41.2447C110.872 29.7627 110.871 18.2817 110.875 6.79973C110.875 6.02873 110.696 5.31273 110.303 4.65373C110.16 4.41473 109.993 4.18073 109.802 3.97773C109.303 3.44473 108.72 3.13373 107.958 3.36073C107.812 3.40373 107.651 3.39373 107.502 3.40773C107.359 2.98673 107.354 2.98673 107.429 2.44273C108.821 2.07373 110.276 1.88873 111.707 1.59873C113.177 1.30073 114.656 1.04773 116.133 0.782732C117.573 0.523732 119.002 0.198732 120.521 0.000732422C120.564 0.217732 120.617 0.386732 120.627 0.558732C120.644 0.838732 120.633 1.12173 120.633 1.40273C120.633 7.09673 120.632 12.7907 120.636 18.4847C120.636 18.8127 120.584 19.1537 120.738 19.5897C120.928 19.3807 121.05 19.2567 121.16 19.1257C122.447 17.5977 124.05 16.6977 126.066 16.4947C127.451 16.3547 128.818 16.3927 130.174 16.6567C133.132 17.2307 135.478 18.7997 137.299 21.1707C138.858 23.1997 139.736 25.5297 140.151 28.0317C140.705 31.3797 140.354 34.6457 139.057 37.7867C137.897 40.5947 136.053 42.8297 133.319 44.2387C130.841 45.5167 128.215 45.8447 125.484 45.3047C124.707 45.1507 123.996 44.8217 123.362 44.3477C122.488 43.6927 121.555 43.1077 120.82 42.2787C120.788 42.2427 120.71 42.2467 120.59 42.2147C120.493 42.4777 120.551 42.7527 120.556 43.0167C120.563 43.3297 120.594 43.6417 120.603 43.9547C120.612 44.2297 120.605 44.5047 120.605 44.8257C120.408 44.8567 120.261 44.8997 120.114 44.8997C116.047 44.9037 111.98 44.9037 107.913 44.9017C107.761 44.9017 107.61 44.8777 107.345 44.8547Z" fill="black"/>
<path fill-rule="evenodd" clip-rule="evenodd" d="M66.4287 28.9878C65.3187 28.9878 64.3187 28.9288 63.3277 29.0018C61.7707 29.1148 60.6217 29.9068 59.9687 31.3398C59.7107 31.9048 59.4737 32.4938 59.3327 33.0968C58.7207 35.7208 58.7687 38.3638 59.2287 41.0058C59.3307 41.5938 59.5087 42.1608 59.8307 42.6698C60.4347 43.6248 61.4357 44.0038 62.5077 43.6528C63.6477 43.2798 64.6787 42.7058 65.5837 41.9098C66.2077 41.3618 66.4967 40.7138 66.4877 39.8538C66.4517 36.5418 66.4737 33.2288 66.4707 29.9168C66.4707 29.6398 66.4467 29.3648 66.4287 28.9878ZM66.4677 27.7688C66.4527 25.4708 66.5477 23.2838 66.4007 21.0988C66.3587 20.4768 66.1797 19.8728 65.9347 19.2908C65.6347 18.5758 65.1077 18.1258 64.3837 17.9008C64.0867 17.8078 63.7767 17.7248 63.4687 17.7098C62.1557 17.6398 60.8417 17.6328 59.5427 17.8828C59.1097 17.9668 58.6957 18.1108 58.3467 18.3918C58.0027 18.6698 57.9787 19.0628 58.2897 19.3618C58.4247 19.4908 58.5887 19.5888 58.7357 19.7048C59.3337 20.1768 59.6517 20.7988 59.7057 21.5558C59.7097 21.6188 59.7157 21.6808 59.7187 21.7438C59.8027 23.7748 58.5327 25.1308 56.4927 25.1998C55.7937 25.2228 55.1277 25.1158 54.4867 24.8228C53.4557 24.3498 52.8927 23.5438 52.7527 22.4368C52.5207 20.6148 53.1497 19.1848 54.7287 18.2068C55.7507 17.5718 56.8757 17.2018 58.0387 16.9398C59.1087 16.6978 60.1917 16.5548 61.2897 16.5258C63.7627 16.4588 66.2297 16.5018 68.6757 16.9328C69.6327 17.1018 70.5667 17.3518 71.4647 17.7258C74.0067 18.7888 75.4957 20.6898 76.0017 23.3898C76.2047 24.4728 76.2437 25.5638 76.2437 26.6588C76.2457 30.9748 76.2387 35.2918 76.2507 39.6078C76.2527 40.2618 76.2947 40.9228 76.3927 41.5688C76.5907 42.8808 77.2077 43.3358 78.5217 43.2448C79.1367 43.2018 79.6057 42.9398 79.8727 42.3848C80.0477 42.0208 80.1767 41.6338 80.3117 41.2528C80.3847 41.0478 80.4147 40.8268 80.4877 40.6218C80.5657 40.4008 80.8117 40.2588 81.0037 40.3168C81.2097 40.3798 81.2917 40.5448 81.2987 40.7478C81.3437 42.2168 80.8827 43.4548 79.6417 44.3258C78.8917 44.8528 78.0647 45.2418 77.1697 45.4148C75.0897 45.8138 73.0027 45.8138 70.9337 45.3248C69.2857 44.9348 67.9467 44.0778 67.0257 42.6258C66.9937 42.5758 66.9347 42.5428 66.8687 42.4848C66.5747 42.4868 66.4237 42.7588 66.2197 42.9318C64.8667 44.0848 63.3717 44.9748 61.6227 45.3608C59.0927 45.9188 56.5827 45.8348 54.1527 44.8898C50.1957 43.3528 48.7327 40.0168 48.8977 36.6388C49.0577 33.3518 50.6357 30.8968 53.4837 29.2578C55.1167 28.3168 56.8867 27.8458 58.7637 27.8218C60.9847 27.7938 63.2057 27.8108 65.4257 27.8048C65.7327 27.8038 66.0397 27.7848 66.4677 27.7688Z" fill="black"/>
<path fill-rule="evenodd" clip-rule="evenodd" d="M161.262 27.5316C161.308 27.4106 161.348 27.3526 161.349 27.2966C161.351 25.5786 161.376 23.8606 161.338 22.1436C161.32 21.3346 161.18 20.5276 160.85 19.7706C160.304 18.5166 159.366 17.7876 157.997 17.6586C157.564 17.6186 157.122 17.6176 156.689 17.6536C155.167 17.7816 154.141 18.5896 153.605 20.0096C153.305 20.8046 153.181 21.6396 153.176 22.4886C153.166 23.9886 153.171 25.4876 153.175 26.9876C153.176 27.1656 153.215 27.3436 153.233 27.5036C154.007 27.6356 160.318 27.6526 161.262 27.5316ZM172.078 28.7626C171.726 28.9016 171.348 28.8456 170.981 28.8456C165.444 28.8496 159.907 28.8466 154.369 28.8516C154.001 28.8526 153.619 28.7806 153.221 28.9756C153.205 29.2056 153.174 29.4486 153.174 29.6916C153.17 32.5386 153.17 35.3856 153.174 38.2316C153.175 39.2046 153.276 40.1676 153.498 41.1156C153.52 41.2066 153.533 41.3006 153.559 41.3896C154.2 43.5966 155.365 44.1716 157.03 44.2186C161.429 44.3426 165.117 42.8356 167.884 39.3386C168.443 38.6316 168.879 37.8256 169.364 37.0606C169.548 36.7706 169.695 36.4566 169.888 36.1736C169.99 36.0236 170.138 35.8896 170.294 35.7976C170.594 35.6176 170.984 35.7956 170.997 36.1386C171.011 36.4746 171.003 36.8426 170.881 37.1456C170.613 37.8096 170.313 38.4706 169.945 39.0846C168.211 41.9746 165.653 43.8256 162.494 44.9036C160.292 45.6546 158.023 45.7936 155.73 45.6236C152.917 45.4146 150.367 44.4636 148.115 42.7536C145.463 40.7406 143.842 38.0586 143.08 34.8456C142.292 31.5246 142.483 28.2456 143.779 25.0866C145.655 20.5136 149.116 17.7746 153.911 16.7546C156.799 16.1406 159.715 16.2246 162.545 17.0836C166.719 18.3496 169.659 21.0246 171.216 25.1356C171.547 26.0106 171.778 26.9236 172.036 27.8236C172.12 28.1156 172.213 28.4216 172.078 28.7626Z" fill="black"/>
<path fill-rule="evenodd" clip-rule="evenodd" d="M85.8646 60.4974C86.9636 60.5244 87.8346 60.1494 88.5566 59.4574C88.9136 59.1164 89.2156 58.7034 89.4846 58.2864C90.1666 57.2314 90.6926 56.0954 91.1316 54.9224C91.9846 52.6374 92.7526 50.3244 93.3976 47.9714C93.5526 47.4034 93.5186 46.9084 93.2546 46.3604C88.9786 37.4884 84.7216 28.6074 80.4606 19.7284C80.3796 19.5594 80.2986 19.3914 80.2096 19.2264C79.7876 18.4434 79.1356 18.0254 78.2426 18.0064C77.8046 17.9964 77.3666 18.0064 76.9286 17.9964C76.7156 17.9914 76.5016 17.9604 76.3096 17.9424C76.1126 17.6084 76.1946 17.3154 76.2326 17.0304C77.0686 16.8984 92.0856 16.8974 92.8696 17.0234C92.9816 17.3204 92.9946 17.6174 92.8366 17.9534C92.6456 18.0034 92.4316 18.0404 92.2326 18.1134C91.0726 18.5414 90.4876 19.7554 90.8746 20.9334C90.9426 21.1404 91.0476 21.3344 91.1406 21.5314C93.2426 25.9684 95.3436 30.4034 97.4476 34.8384C97.5386 35.0314 97.6526 35.2134 97.7406 35.3724C97.9866 35.4244 97.9586 35.2444 98.0106 35.1564C98.0726 35.0504 98.1086 34.9274 98.1536 34.8104C99.5926 31.0434 101.032 27.2764 102.471 23.5104C102.828 22.5754 103.189 21.6434 103.545 20.7074C103.622 20.5034 103.706 20.2984 103.752 20.0864C103.94 19.2054 103.585 18.5454 102.74 18.2294C102.48 18.1334 102.197 18.0964 101.921 18.0454C101.681 18.0004 101.437 17.9754 101.21 17.9424C101.042 17.6024 101.053 17.3094 101.172 17.0204C101.909 16.9124 107.139 16.8794 108.605 16.9714C108.841 17.2384 108.762 17.5434 108.689 17.9004C108.531 17.9414 108.36 17.9954 108.185 18.0284C108.001 18.0624 107.81 18.0624 107.627 18.1014C106.341 18.3724 105.415 19.0824 104.937 20.3314C104.647 21.0904 104.357 21.8504 104.067 22.6084C101.354 29.7044 98.6136 36.7894 95.9446 43.9004C95.1436 46.0334 94.5426 48.2414 93.8426 50.4124C93.2956 52.1074 92.7586 53.8074 92.1726 55.4894C91.9066 56.2544 91.5366 56.9834 91.2106 57.7274C91.1476 57.8704 91.0686 58.0064 90.9976 58.1454C89.7956 60.5084 87.8646 61.7264 85.2206 61.8164C84.5956 61.8384 83.9686 61.8564 83.3456 61.8284C82.2506 61.7784 81.2816 61.3594 80.4056 60.7194C79.6076 60.1364 79.1496 59.3434 78.9926 58.3724C78.9626 58.1874 78.9436 58.0004 78.9276 57.8134C78.7366 55.4764 80.3586 54.1854 81.7596 53.7954C82.4536 53.6014 83.1646 53.5704 83.8956 53.6634C85.5976 53.8784 86.9236 55.3644 87.0396 57.1284C87.1166 58.2914 86.9116 59.3764 85.9966 60.2144C85.9556 60.2514 85.9446 60.3204 85.8646 60.4974Z" fill="black"/>
<path fill-rule="evenodd" clip-rule="evenodd" d="M113.815 53.5835C113.815 53.1055 113.799 52.7285 113.767 52.4475C113.735 52.1675 113.689 51.9545 113.629 51.8075C113.57 51.6605 113.497 51.5635 113.409 51.5185C113.322 51.4725 113.223 51.4495 113.113 51.4495C112.975 51.4495 112.837 51.4925 112.7 51.5805C112.562 51.6675 112.438 51.7795 112.329 51.9175C112.218 52.0555 112.128 52.2045 112.06 52.3645C111.991 52.5255 111.957 52.6795 111.957 52.8265V55.6895C111.957 55.8005 111.989 55.9225 112.053 56.0555C112.117 56.1875 112.202 56.3165 112.307 56.4405C112.413 56.5635 112.535 56.6675 112.672 56.7505C112.81 56.8325 112.957 56.8745 113.113 56.8745C113.232 56.8745 113.337 56.8425 113.429 56.7775C113.521 56.7135 113.595 56.6015 113.65 56.4405C113.705 56.2795 113.747 56.0575 113.774 55.7725C113.801 55.4875 113.815 55.1255 113.815 54.6855V53.5835ZM109.891 60.5505V51.4075L109.148 51.5315V51.2985L111.957 50.8295V51.9315C112.085 51.6925 112.264 51.4835 112.494 51.3055C112.723 51.1255 113.035 51.0365 113.429 51.0365C113.879 51.0365 114.274 51.1255 114.614 51.3055C114.954 51.4835 115.236 51.7185 115.461 52.0075C115.685 52.2965 115.855 52.6265 115.97 52.9985C116.085 53.3695 116.142 53.7485 116.142 54.1345C116.142 54.5205 116.085 54.8975 115.97 55.2705C115.855 55.6425 115.685 55.9725 115.461 56.2615C115.236 56.5505 114.954 56.7845 114.614 56.9635C114.274 57.1435 113.879 57.2315 113.429 57.2315C113.017 57.2315 112.705 57.1635 112.494 57.0255C112.282 56.8885 112.103 56.7045 111.957 56.4755V60.5505H112.7V60.7705H109.148V60.5505H109.891Z" fill="black"/>
<path fill-rule="evenodd" clip-rule="evenodd" d="M120.879 54.6986C120.879 55.0756 120.888 55.4056 120.906 55.6896C120.925 55.9746 120.966 56.2136 121.03 56.4056C121.095 56.5986 121.191 56.7436 121.319 56.8396C121.448 56.9356 121.622 56.9836 121.843 56.9836C122.063 56.9836 122.237 56.9356 122.366 56.8396C122.494 56.7436 122.591 56.5986 122.655 56.4056C122.719 56.2136 122.761 55.9746 122.779 55.6896C122.797 55.4056 122.807 55.0756 122.807 54.6986V53.6246C122.807 53.2576 122.797 52.9276 122.779 52.6336C122.761 52.3396 122.719 52.0946 122.655 51.8966C122.591 51.6996 122.494 51.5486 122.366 51.4426C122.237 51.3376 122.063 51.2846 121.843 51.2846C121.622 51.2846 121.448 51.3376 121.319 51.4426C121.191 51.5486 121.095 51.6996 121.03 51.8966C120.966 52.0946 120.925 52.3396 120.906 52.6336C120.888 52.9276 120.879 53.2576 120.879 53.6246V54.6986ZM118.938 52.9986C119.066 52.6266 119.256 52.2966 119.509 52.0076C119.761 51.7186 120.082 51.4836 120.473 51.3046C120.862 51.1256 121.319 51.0366 121.843 51.0366C122.366 51.0366 122.822 51.1256 123.213 51.3046C123.603 51.4836 123.924 51.7186 124.177 52.0076C124.429 52.2966 124.619 52.6266 124.748 52.9986C124.876 53.3696 124.941 53.7486 124.941 54.1346C124.941 54.5196 124.876 54.8976 124.748 55.2696C124.619 55.6416 124.429 55.9716 124.177 56.2606C123.924 56.5506 123.603 56.7846 123.213 56.9636C122.822 57.1426 122.366 57.2316 121.843 57.2316C121.319 57.2316 120.862 57.1426 120.473 56.9636C120.082 56.7846 119.761 56.5506 119.509 56.2606C119.256 55.9716 119.066 55.6416 118.938 55.2696C118.809 54.8976 118.745 54.5196 118.745 54.1346C118.745 53.7486 118.809 53.3696 118.938 52.9986Z" fill="black"/>
<path fill-rule="evenodd" clip-rule="evenodd" d="M130.145 54.8089C130.145 55.2489 130.156 55.5999 130.179 55.8619C130.202 56.1229 130.239 56.3239 130.29 56.4609C130.339 56.5989 130.411 56.6909 130.502 56.7369C130.594 56.7829 130.709 56.8049 130.847 56.8049C130.966 56.8049 131.081 56.7729 131.191 56.7079C131.301 56.6449 131.407 56.5619 131.508 56.4609C131.609 56.3599 131.701 56.2519 131.784 56.1369C131.866 56.0229 131.935 55.9149 131.99 55.8139V52.2619C131.861 52.0329 131.703 51.8259 131.515 51.6419C131.327 51.4579 131.104 51.3669 130.847 51.3669C130.709 51.3669 130.597 51.3989 130.509 51.4629C130.422 51.5279 130.351 51.6369 130.296 51.7929C130.241 51.9499 130.202 52.1609 130.179 52.4269C130.156 52.6929 130.145 53.0279 130.145 53.4319V54.8089ZM131.26 47.9659L134.055 47.4429V56.8459H134.798V57.0669H131.99V56.3239C131.852 56.5159 131.662 56.7109 131.418 56.9089C131.175 57.1059 130.879 57.2049 130.531 57.2049C130.071 57.2049 129.669 57.1179 129.326 56.9429C128.981 56.7689 128.695 56.5369 128.465 56.2469C128.236 55.9579 128.063 55.6279 127.949 55.2559C127.833 54.8839 127.777 54.5059 127.777 54.1209C127.777 53.7349 127.833 53.3589 127.949 52.9919C128.063 52.6239 128.236 52.2959 128.465 52.0069C128.695 51.7179 128.981 51.4859 129.326 51.3119C129.669 51.1369 130.071 51.0499 130.531 51.0499C130.916 51.0499 131.228 51.1189 131.466 51.2559C131.706 51.3939 131.879 51.5689 131.99 51.7799V48.0479L131.26 48.1859V47.9659Z" fill="black"/>
<path fill-rule="evenodd" clip-rule="evenodd" d="M140.064 51.4076C139.913 51.4906 139.789 51.6236 139.692 51.8066C139.596 51.9906 139.527 52.2266 139.486 52.5156C139.444 52.8046 139.423 53.1616 139.423 53.5836V54.6846C139.423 55.1166 139.444 55.4736 139.486 55.7596C139.527 56.0436 139.598 56.2726 139.699 56.4476C139.8 56.6216 139.931 56.7456 140.091 56.8186C140.251 56.8926 140.452 56.9286 140.69 56.9286C140.947 56.9286 141.198 56.8866 141.441 56.7986C141.684 56.7116 141.907 56.5926 142.109 56.4406C142.31 56.2886 142.485 56.1166 142.631 55.9246C142.779 55.7306 142.888 55.5246 142.962 55.3036C142.99 55.2136 143.036 55.1666 143.1 55.1666C143.182 55.1666 143.224 55.2176 143.224 55.3176C143.224 55.3546 143.219 55.3826 143.21 55.4006C143.026 55.9426 142.698 56.3836 142.225 56.7226C141.752 57.0616 141.163 57.2316 140.457 57.2316C139.933 57.2316 139.476 57.1426 139.086 56.9636C138.696 56.7846 138.371 56.5506 138.109 56.2616C137.847 55.9716 137.652 55.6416 137.524 55.2696C137.395 54.8976 137.331 54.5196 137.331 54.1346C137.331 53.7486 137.4 53.3696 137.538 52.9986C137.675 52.6266 137.879 52.2966 138.15 52.0076C138.42 51.7186 138.749 51.4836 139.134 51.3046C139.52 51.1256 139.96 51.0366 140.457 51.0366C140.943 51.0366 141.339 51.0796 141.647 51.1676C141.955 51.2546 142.193 51.3666 142.363 51.5046C142.533 51.6416 142.65 51.7896 142.714 51.9446C142.779 52.1006 142.811 52.2476 142.811 52.3856C142.811 52.6246 142.737 52.8306 142.59 53.0056C142.444 53.1796 142.228 53.2666 141.943 53.2666C141.677 53.2666 141.468 53.1886 141.317 53.0326C141.166 52.8766 141.089 52.6926 141.089 52.4816C141.089 52.2436 141.161 52.0506 141.303 51.9036C141.445 51.7576 141.618 51.6696 141.819 51.6416C141.819 51.5876 141.711 51.5136 141.496 51.4216C141.28 51.3306 140.994 51.2846 140.635 51.2846C140.406 51.2846 140.215 51.3256 140.064 51.4076Z" fill="black"/>
<path fill-rule="evenodd" clip-rule="evenodd" d="M148.787 53.6937C148.41 53.6937 148.141 53.8497 147.981 54.1617C147.82 54.4737 147.74 54.8817 147.74 55.3867C147.74 55.9007 147.788 56.2707 147.885 56.4957C147.981 56.7197 148.144 56.8327 148.374 56.8327C148.429 56.8327 148.512 56.8097 148.621 56.7637C148.731 56.7177 148.842 56.6607 148.952 56.5917C149.062 56.5227 149.156 56.4447 149.234 56.3577C149.312 56.2707 149.351 56.1857 149.351 56.1027V53.6937H148.787ZM149.853 51.1537C150.216 51.2217 150.515 51.3397 150.749 51.5047C150.982 51.6697 151.152 51.8847 151.258 52.1517C151.363 52.4177 151.416 52.7437 151.416 53.1297V56.0197C151.416 56.2407 151.441 56.4127 151.492 56.5367C151.543 56.6607 151.659 56.7227 151.844 56.7227C151.999 56.7227 152.107 56.6727 152.167 56.5707C152.226 56.4697 152.27 56.3507 152.298 56.2137C152.307 56.1307 152.344 56.0897 152.408 56.0897C152.463 56.0897 152.49 56.1267 152.49 56.1997C152.49 56.2997 152.475 56.4107 152.442 56.5297C152.41 56.6487 152.341 56.7587 152.235 56.8607C152.13 56.9617 151.981 57.0477 151.788 57.1217C151.596 57.1957 151.334 57.2317 151.004 57.2317C150.535 57.2317 150.178 57.1607 149.93 57.0187C149.682 56.8767 149.516 56.7087 149.433 56.5157C149.36 56.5897 149.27 56.6677 149.165 56.7507C149.059 56.8327 148.938 56.9107 148.801 56.9837C148.663 57.0577 148.505 57.1177 148.325 57.1637C148.146 57.2097 147.942 57.2317 147.713 57.2317C147.364 57.2317 147.058 57.1837 146.797 57.0877C146.535 56.9907 146.317 56.8607 146.143 56.6947C145.969 56.5297 145.838 56.3357 145.751 56.1097C145.663 55.8847 145.62 55.6487 145.62 55.4007C145.62 55.1627 145.666 54.9257 145.758 54.6917C145.849 54.4577 145.989 54.2497 146.178 54.0647C146.365 53.8817 146.599 53.7327 146.88 53.6177C147.16 53.5037 147.487 53.4457 147.864 53.4457H149.351V52.3437C149.351 52.0137 149.301 51.7567 149.2 51.5737C149.099 51.3897 148.878 51.2977 148.539 51.2977C148.162 51.2977 147.905 51.3237 147.767 51.3737C147.63 51.4237 147.561 51.4857 147.561 51.5587C147.561 51.6147 147.594 51.6607 147.657 51.6967C147.832 51.8067 147.919 51.9767 147.919 52.2067C147.919 52.2617 147.91 52.3307 147.891 52.4137C147.873 52.4957 147.837 52.5717 147.781 52.6397C147.726 52.7097 147.65 52.7687 147.555 52.8197C147.458 52.8697 147.332 52.8947 147.176 52.8947C146.983 52.8947 146.81 52.8377 146.659 52.7227C146.508 52.6077 146.433 52.4177 146.433 52.1517C146.433 51.7847 146.63 51.5087 147.024 51.3257C147.419 51.1417 147.919 51.0497 148.525 51.0497C149.048 51.0497 149.491 51.0847 149.853 51.1537Z" fill="black"/>
<path fill-rule="evenodd" clip-rule="evenodd" d="M159.237 51.0365C159.246 51.0175 159.273 51.0095 159.319 51.0095C159.365 51.0095 159.388 51.0505 159.388 51.1325V52.4275C159.388 52.5835 159.356 52.6605 159.292 52.6605C159.227 52.6605 159.181 52.5925 159.154 52.4545C159.108 52.2705 159.032 52.1075 158.926 51.9655C158.821 51.8235 158.695 51.7015 158.549 51.6005C158.401 51.4995 158.246 51.4215 158.08 51.3665C157.915 51.3115 157.755 51.2845 157.598 51.2845C157.175 51.2845 156.866 51.3785 156.669 51.5665C156.471 51.7545 156.373 51.9585 156.373 52.1795C156.373 52.4455 156.478 52.6515 156.689 52.7985C156.9 52.9455 157.254 53.0185 157.75 53.0185C158.163 53.0185 158.505 53.0715 158.775 53.1775C159.046 53.2825 159.261 53.4275 159.423 53.6105C159.583 53.7945 159.696 54.0055 159.759 54.2445C159.824 54.4825 159.856 54.7355 159.856 55.0015C159.856 55.2765 159.808 55.5485 159.712 55.8135C159.615 56.0805 159.47 56.3185 159.278 56.5295C159.086 56.7405 158.841 56.9105 158.549 57.0395C158.255 57.1675 157.906 57.2315 157.502 57.2315C157.097 57.2315 156.745 57.1655 156.442 57.0325C156.138 56.8995 155.9 56.7685 155.725 56.6405L155.45 57.0255C155.432 57.0615 155.409 57.0945 155.382 57.1215C155.354 57.1495 155.322 57.1635 155.285 57.1635C155.23 57.1635 155.203 57.1265 155.203 57.0535V55.2765C155.203 55.1485 155.239 55.0845 155.312 55.0845C155.377 55.0845 155.432 55.1665 155.478 55.3325C155.662 55.9295 155.921 56.3525 156.256 56.6055C156.591 56.8575 157.007 56.9835 157.502 56.9835C157.961 56.9835 158.287 56.8885 158.479 56.6945C158.673 56.5025 158.768 56.2915 158.768 56.0615C158.768 55.9605 158.755 55.8545 158.727 55.7455C158.7 55.6355 158.637 55.5335 158.542 55.4415C158.445 55.3495 158.302 55.2745 158.115 55.2155C157.926 55.1555 157.676 55.1255 157.364 55.1255C157.015 55.1255 156.708 55.0725 156.442 54.9675C156.175 54.8615 155.951 54.7175 155.767 54.5335C155.584 54.3495 155.443 54.1345 155.347 53.8865C155.251 53.6385 155.203 53.3775 155.203 53.1015C155.203 52.8455 155.251 52.5925 155.347 52.3445C155.443 52.0965 155.588 51.8765 155.781 51.6825C155.973 51.4905 156.221 51.3345 156.524 51.2155C156.827 51.0965 157.185 51.0365 157.598 51.0365C157.91 51.0365 158.176 51.0775 158.397 51.1605C158.617 51.2425 158.787 51.3345 158.906 51.4355L159.195 51.0915C159.214 51.0725 159.227 51.0555 159.237 51.0365Z" fill="black"/>
<path fill-rule="evenodd" clip-rule="evenodd" d="M165.322 51.1469H166.355V51.3669H165.322V54.8639C165.322 55.5519 165.384 56.0479 165.509 56.3509C165.632 56.6539 165.868 56.8049 166.218 56.8049C166.428 56.8049 166.614 56.7269 166.775 56.5709C166.935 56.4159 167.039 56.1999 167.085 55.9239C167.093 55.8689 167.112 55.8279 167.139 55.7999C167.167 55.7729 167.195 55.7589 167.222 55.7589C167.304 55.7589 167.346 55.8089 167.346 55.9109V55.9519C167.272 56.3459 167.107 56.6589 166.85 56.8879C166.593 57.1179 166.185 57.2319 165.625 57.2319C165.303 57.2319 164.999 57.1909 164.71 57.1079C164.421 57.0259 164.168 56.8859 163.952 56.6879C163.736 56.4909 163.567 56.2269 163.443 55.8969C163.319 55.5659 163.257 55.1489 163.257 54.6439V51.3669H162.513V51.1469H163.257C163.45 51.0829 163.644 50.9909 163.843 50.8719C164.04 50.7509 164.223 50.5999 164.393 50.4169C164.562 50.2329 164.714 50.0099 164.847 49.7489C164.98 49.4879 165.074 49.1819 165.13 48.8339H165.322V51.1469Z" fill="black"/>
</svg>
