<svg width="173" height="62" viewBox="0 0 173 62" fill="none" xmlns="http://www.w3.org/2000/svg">
<path fill-rule="evenodd" clip-rule="evenodd" d="M33.4162 5.15173C34.2902 5.01673 43.2682 4.96173 47.1422 5.06273C47.3232 5.06773 47.5032 5.09973 47.6892 5.11973C47.8032 5.43273 47.8322 5.69373 47.6502 5.99973C47.3912 6.01173 47.1162 6.02573 46.8402 6.04073C45.5042 6.10973 44.5762 7.02973 44.4932 8.37373C44.4782 8.62373 44.4872 8.87473 44.4872 9.12473V40.9427C44.4872 41.1937 44.4822 41.4437 44.4912 41.6937C44.5292 42.8897 45.4042 43.9577 46.7292 44.0387C47.0362 44.0577 47.3432 44.0777 47.6222 44.0957C47.8412 44.3977 47.8042 44.6617 47.6922 44.9467C47.6132 44.9787 47.5312 45.0357 47.4452 45.0417C47.1962 45.0577 46.9452 45.0567 46.6952 45.0567C41.9712 45.0577 37.2462 45.0577 32.5222 45.0557C32.2132 45.0557 31.9042 45.0367 31.6212 45.0267C31.3972 44.7337 31.4382 44.4667 31.5322 44.1777C31.6082 44.1447 31.6882 44.0867 31.7722 44.0777C32.0832 44.0467 32.3982 44.0497 32.7072 44.0057C33.8162 43.8407 34.6232 42.9647 34.6982 41.8417C34.7192 41.5307 34.7052 41.2167 34.6982 40.9037C34.5792 35.3997 34.4572 29.8947 34.3362 24.3897C34.2182 19.0097 34.1022 13.6307 33.9822 8.25173C33.9782 8.04273 33.9532 7.83473 33.9382 7.63273C33.8592 7.63273 33.8222 7.62273 33.7982 7.63573C33.7742 7.64873 33.7622 7.68473 33.7482 7.71373C33.7182 7.76873 33.6902 7.82473 33.6652 7.88073C33.6392 7.93773 33.6162 7.99673 33.5952 8.05473C29.1472 20.2757 24.7002 32.4957 20.2522 44.7147C20.2312 44.7737 20.2022 44.8307 20.1722 44.8837C20.1582 44.9107 20.1312 44.9297 20.0622 45.0047H19.2062C18.9292 44.7547 18.8762 44.3987 18.7572 44.0837C16.1882 37.3007 13.6252 30.5167 11.0622 23.7317C9.1722 18.7317 7.2862 13.7297 5.3952 8.72873C5.2782 8.42073 5.1392 8.11873 4.8812 7.83773C4.8692 8.13173 4.8462 8.42673 4.8462 8.72273C4.8432 12.1017 4.8442 15.4807 4.8442 18.8597V39.9777C4.8442 40.2917 4.8512 40.6037 4.8482 40.9177C4.8292 42.7237 5.9922 43.6287 7.3622 43.9657C7.5712 44.0177 7.7852 44.0507 7.9652 44.0877C8.1642 44.3897 8.1372 44.6567 8.0132 44.9747C7.2352 45.1517 6.4252 45.0327 5.6242 45.0527C4.7792 45.0747 3.9342 45.0617 3.0892 45.0557C2.2802 45.0517 1.4702 45.0817 0.697203 45.0347C0.438203 44.7367 0.571203 44.4587 0.549203 44.1507C0.781203 44.0907 0.983203 44.0217 1.1912 43.9907C1.6972 43.9127 2.1482 43.7087 2.5702 43.4297C3.2662 42.9697 3.6652 42.3237 3.7462 41.4957C3.7852 41.0917 3.7962 40.6837 3.7972 40.2777C3.7992 29.8587 3.7992 19.4407 3.7972 9.02173C3.7972 8.70973 3.7962 8.39473 3.7592 8.08573C3.6242 6.98473 2.7442 6.14573 1.6352 6.04873C1.2992 6.01973 0.961203 6.01473 0.575203 5.99673C0.559203 5.70373 0.546203 5.46373 0.533203 5.21873C0.640203 5.16573 0.718203 5.09673 0.802203 5.08973C1.0502 5.06673 1.3012 5.06173 1.5512 5.06173C5.2432 5.05973 8.9342 5.05973 12.6262 5.06173C12.9352 5.06173 13.2432 5.08373 13.6012 5.09673C16.8862 13.8377 20.1602 22.5507 23.4622 31.3377C23.7972 31.0577 23.8412 30.7137 23.9502 30.4227C25.5412 26.1777 27.1222 21.9297 28.7052 17.6827C30.1582 13.7867 31.6112 9.89073 33.0662 5.99673C33.1752 5.70573 33.3042 5.42173 33.4162 5.15173" fill="white"/>
<path fill-rule="evenodd" clip-rule="evenodd" d="M120.633 30.401C120.633 32.965 120.654 35.53 120.619 38.094C120.611 38.759 120.764 39.318 121.17 39.828C121.715 40.511 122.217 41.233 122.806 41.878C123.223 42.334 123.732 42.714 124.235 43.08C124.953 43.601 125.781 43.712 126.65 43.607C127.423 43.513 128.021 43.142 128.346 42.438C128.592 41.904 128.792 41.337 128.929 40.764C129.185 39.699 129.317 38.609 129.324 37.511C129.35 33.884 129.37 30.257 129.373 26.63C129.375 25.13 129.347 23.628 129.133 22.137C129 21.207 128.848 20.281 128.404 19.436C127.771 18.232 126.787 17.756 125.453 17.972C124.564 18.117 123.79 18.503 123.09 19.048C122.345 19.629 121.722 20.327 121.135 21.063C120.768 21.524 120.615 22.014 120.621 22.614C120.649 25.21 120.633 27.805 120.633 30.401M107.345 44.855C107.369 44.484 107.386 44.214 107.408 43.882C107.86 43.867 108.261 43.853 108.663 43.841C109.145 43.828 109.586 43.698 109.974 43.403C110.504 43 110.777 42.456 110.857 41.807C110.879 41.622 110.872 41.432 110.872 41.245C110.872 29.763 110.871 18.282 110.875 6.79998C110.875 6.02898 110.696 5.31298 110.303 4.65398C110.16 4.41498 109.993 4.18098 109.802 3.97798C109.303 3.44498 108.72 3.13398 107.958 3.36098C107.812 3.40398 107.651 3.39398 107.502 3.40798C107.359 2.98698 107.354 2.98698 107.429 2.44298C108.821 2.07398 110.276 1.88898 111.707 1.59898C113.177 1.30098 114.656 1.04798 116.133 0.782977C117.573 0.523977 119.002 0.198977 120.521 0.000976562C120.564 0.217977 120.617 0.386977 120.627 0.558977C120.644 0.838977 120.633 1.12198 120.633 1.40298C120.633 7.09698 120.632 12.791 120.636 18.485C120.636 18.813 120.584 19.154 120.738 19.59C120.928 19.381 121.05 19.257 121.16 19.126C122.447 17.598 124.05 16.698 126.066 16.495C127.451 16.355 128.818 16.393 130.174 16.657C133.132 17.231 135.478 18.8 137.299 21.171C138.858 23.2 139.736 25.53 140.151 28.032C140.705 31.38 140.354 34.646 139.057 37.787C137.897 40.595 136.053 42.83 133.319 44.239C130.841 45.517 128.215 45.845 125.484 45.305C124.707 45.151 123.996 44.822 123.362 44.348C122.488 43.693 121.555 43.108 120.82 42.279C120.788 42.243 120.71 42.247 120.59 42.215C120.493 42.478 120.551 42.753 120.556 43.017C120.563 43.33 120.594 43.642 120.603 43.955C120.612 44.23 120.605 44.505 120.605 44.826C120.408 44.857 120.261 44.9 120.114 44.9C116.047 44.904 111.98 44.904 107.913 44.902C107.761 44.902 107.61 44.878 107.345 44.855" fill="white"/>
<path fill-rule="evenodd" clip-rule="evenodd" d="M66.4282 28.9884C65.3182 28.9884 64.3182 28.9294 63.3272 29.0024C61.7702 29.1154 60.6212 29.9074 59.9682 31.3404C59.7102 31.9054 59.4732 32.4944 59.3322 33.0974C58.7202 35.7214 58.7682 38.3644 59.2282 41.0064C59.3302 41.5944 59.5082 42.1614 59.8302 42.6704C60.4342 43.6254 61.4352 44.0044 62.5072 43.6534C63.6472 43.2804 64.6782 42.7064 65.5832 41.9104C66.2072 41.3624 66.4962 40.7144 66.4872 39.8544C66.4512 36.5424 66.4732 33.2294 66.4702 29.9174C66.4702 29.6404 66.4462 29.3654 66.4282 28.9884M66.4672 27.7694C66.4522 25.4714 66.5472 23.2844 66.4002 21.0994C66.3582 20.4774 66.1792 19.8734 65.9342 19.2914C65.6342 18.5764 65.1072 18.1264 64.3832 17.9014C64.0862 17.8084 63.7762 17.7254 63.4682 17.7104C62.1552 17.6404 60.8412 17.6334 59.5422 17.8834C59.1092 17.9674 58.6952 18.1114 58.3462 18.3924C58.0022 18.6704 57.9782 19.0634 58.2892 19.3624C58.4242 19.4914 58.5882 19.5894 58.7352 19.7054C59.3332 20.1774 59.6512 20.7994 59.7052 21.5564C59.7092 21.6194 59.7152 21.6814 59.7182 21.7444C59.8022 23.7754 58.5322 25.1314 56.4922 25.2004C55.7932 25.2234 55.1272 25.1164 54.4862 24.8234C53.4552 24.3504 52.8922 23.5444 52.7522 22.4374C52.5202 20.6154 53.1492 19.1854 54.7282 18.2074C55.7502 17.5724 56.8752 17.2024 58.0382 16.9404C59.1082 16.6984 60.1912 16.5554 61.2892 16.5264C63.7622 16.4594 66.2292 16.5024 68.6752 16.9334C69.6322 17.1024 70.5662 17.3524 71.4642 17.7264C74.0062 18.7894 75.4952 20.6904 76.0012 23.3904C76.2042 24.4734 76.2432 25.5644 76.2432 26.6594C76.2452 30.9754 76.2382 35.2924 76.2502 39.6084C76.2522 40.2624 76.2942 40.9234 76.3922 41.5694C76.5902 42.8814 77.2072 43.3364 78.5212 43.2454C79.1362 43.2024 79.6052 42.9404 79.8722 42.3854C80.0472 42.0214 80.1762 41.6344 80.3112 41.2534C80.3842 41.0484 80.4142 40.8274 80.4872 40.6224C80.5652 40.4014 80.8112 40.2594 81.0032 40.3174C81.2092 40.3804 81.2912 40.5454 81.2982 40.7484C81.3432 42.2174 80.8822 43.4554 79.6412 44.3264C78.8912 44.8534 78.0642 45.2424 77.1692 45.4154C75.0892 45.8144 73.0022 45.8144 70.9332 45.3254C69.2852 44.9354 67.9462 44.0784 67.0252 42.6264C66.9932 42.5764 66.9342 42.5434 66.8682 42.4854C66.5742 42.4874 66.4232 42.7594 66.2192 42.9324C64.8662 44.0854 63.3712 44.9754 61.6222 45.3614C59.0922 45.9194 56.5822 45.8354 54.1522 44.8904C50.1952 43.3534 48.7322 40.0174 48.8972 36.6394C49.0572 33.3524 50.6352 30.8974 53.4832 29.2584C55.1162 28.3174 56.8862 27.8464 58.7632 27.8224C60.9842 27.7944 63.2052 27.8114 65.4252 27.8054C65.7322 27.8044 66.0392 27.7854 66.4672 27.7694" fill="white"/>
<path fill-rule="evenodd" clip-rule="evenodd" d="M161.262 27.5322C161.308 27.4112 161.348 27.3532 161.349 27.2972C161.351 25.5792 161.376 23.8612 161.338 22.1442C161.32 21.3352 161.18 20.5282 160.85 19.7712C160.304 18.5172 159.366 17.7882 157.997 17.6592C157.564 17.6192 157.122 17.6182 156.689 17.6542C155.167 17.7822 154.141 18.5902 153.605 20.0102C153.305 20.8052 153.181 21.6402 153.176 22.4892C153.166 23.9892 153.171 25.4882 153.175 26.9882C153.176 27.1662 153.215 27.3442 153.233 27.5042C154.007 27.6362 160.318 27.6532 161.262 27.5322M172.078 28.7632C171.726 28.9022 171.348 28.8462 170.981 28.8462C165.444 28.8502 159.907 28.8472 154.369 28.8522C154.001 28.8532 153.619 28.7812 153.221 28.9762C153.205 29.2062 153.174 29.4492 153.174 29.6922C153.17 32.5392 153.17 35.3862 153.174 38.2322C153.175 39.2052 153.276 40.1682 153.498 41.1162C153.52 41.2072 153.533 41.3012 153.559 41.3902C154.2 43.5972 155.365 44.1722 157.03 44.2192C161.429 44.3432 165.117 42.8362 167.884 39.3392C168.443 38.6322 168.879 37.8262 169.364 37.0612C169.548 36.7712 169.695 36.4572 169.888 36.1742C169.99 36.0242 170.138 35.8902 170.294 35.7982C170.594 35.6182 170.984 35.7962 170.997 36.1392C171.011 36.4752 171.003 36.8432 170.881 37.1462C170.613 37.8102 170.313 38.4712 169.945 39.0852C168.211 41.9752 165.653 43.8262 162.494 44.9042C160.292 45.6552 158.023 45.7942 155.73 45.6242C152.917 45.4152 150.367 44.4642 148.115 42.7542C145.463 40.7412 143.842 38.0592 143.08 34.8462C142.292 31.5252 142.483 28.2462 143.779 25.0872C145.655 20.5142 149.116 17.7752 153.911 16.7552C156.799 16.1412 159.715 16.2252 162.545 17.0842C166.719 18.3502 169.659 21.0252 171.216 25.1362C171.547 26.0112 171.778 26.9242 172.036 27.8242C172.12 28.1162 172.213 28.4222 172.078 28.7632" fill="white"/>
<path fill-rule="evenodd" clip-rule="evenodd" d="M85.8643 60.4976C86.9633 60.5246 87.8343 60.1496 88.5563 59.4576C88.9133 59.1166 89.2153 58.7036 89.4843 58.2866C90.1663 57.2316 90.6923 56.0956 91.1313 54.9226C91.9843 52.6376 92.7523 50.3246 93.3973 47.9716C93.5523 47.4036 93.5183 46.9086 93.2543 46.3606C88.9783 37.4886 84.7213 28.6076 80.4603 19.7286C80.3793 19.5596 80.2983 19.3916 80.2093 19.2266C79.7873 18.4436 79.1353 18.0256 78.2423 18.0066C77.8043 17.9966 77.3663 18.0066 76.9283 17.9966C76.7153 17.9916 76.5013 17.9606 76.3093 17.9426C76.1123 17.6086 76.1943 17.3156 76.2323 17.0306C77.0683 16.8986 92.0853 16.8976 92.8693 17.0236C92.9813 17.3206 92.9943 17.6176 92.8363 17.9536C92.6453 18.0036 92.4313 18.0406 92.2323 18.1136C91.0723 18.5416 90.4873 19.7556 90.8743 20.9336C90.9423 21.1406 91.0473 21.3346 91.1403 21.5316C93.2423 25.9686 95.3433 30.4036 97.4473 34.8386C97.5383 35.0316 97.6523 35.2136 97.7403 35.3726C97.9863 35.4246 97.9583 35.2446 98.0103 35.1566C98.0723 35.0506 98.1083 34.9276 98.1533 34.8106C99.5923 31.0436 101.031 27.2766 102.47 23.5106C102.827 22.5756 103.188 21.6436 103.544 20.7076C103.621 20.5036 103.705 20.2986 103.751 20.0866C103.939 19.2056 103.584 18.5456 102.739 18.2296C102.479 18.1336 102.196 18.0966 101.92 18.0456C101.68 18.0006 101.436 17.9756 101.209 17.9426C101.041 17.6026 101.052 17.3096 101.171 17.0206C101.908 16.9126 107.138 16.8796 108.604 16.9716C108.84 17.2386 108.761 17.5436 108.688 17.9006C108.53 17.9416 108.359 17.9956 108.184 18.0286C108 18.0626 107.809 18.0626 107.626 18.1016C106.34 18.3726 105.414 19.0826 104.936 20.3316C104.646 21.0906 104.356 21.8506 104.066 22.6086C101.353 29.7046 98.6133 36.7896 95.9443 43.9006C95.1433 46.0336 94.5423 48.2416 93.8423 50.4126C93.2953 52.1076 92.7583 53.8076 92.1723 55.4896C91.9063 56.2546 91.5363 56.9836 91.2103 57.7276C91.1473 57.8706 91.0683 58.0066 90.9973 58.1456C89.7953 60.5086 87.8643 61.7266 85.2203 61.8166C84.5953 61.8386 83.9683 61.8566 83.3453 61.8286C82.2503 61.7786 81.2813 61.3596 80.4053 60.7196C79.6073 60.1366 79.1493 59.3436 78.9923 58.3726C78.9623 58.1876 78.9433 58.0006 78.9273 57.8136C78.7363 55.4766 80.3583 54.1856 81.7593 53.7956C82.4533 53.6016 83.1643 53.5706 83.8953 53.6636C85.5973 53.8786 86.9233 55.3646 87.0393 57.1286C87.1163 58.2916 86.9113 59.3766 85.9963 60.2146C85.9553 60.2516 85.9443 60.3206 85.8643 60.4976" fill="white"/>
<path fill-rule="evenodd" clip-rule="evenodd" d="M113.815 53.5841C113.815 53.1061 113.799 52.7291 113.767 52.4481C113.735 52.1681 113.689 51.9551 113.629 51.8081C113.57 51.6611 113.497 51.5641 113.409 51.5191C113.322 51.4731 113.223 51.4501 113.113 51.4501C112.975 51.4501 112.837 51.4931 112.7 51.5811C112.562 51.6681 112.438 51.7801 112.329 51.9181C112.218 52.0561 112.128 52.2051 112.06 52.3651C111.991 52.5261 111.957 52.6801 111.957 52.8271V55.6901C111.957 55.8011 111.989 55.9231 112.053 56.0561C112.117 56.1881 112.202 56.3171 112.307 56.4411C112.413 56.5641 112.535 56.6681 112.672 56.7511C112.81 56.8331 112.957 56.8751 113.113 56.8751C113.232 56.8751 113.337 56.8431 113.429 56.7781C113.521 56.7141 113.595 56.6021 113.65 56.4411C113.705 56.2801 113.747 56.0581 113.774 55.7731C113.801 55.4881 113.815 55.1261 113.815 54.6861V53.5841ZM109.891 60.5511V51.4081L109.148 51.5321V51.2991L111.957 50.8301V51.9321C112.085 51.6931 112.264 51.4841 112.494 51.3061C112.723 51.1261 113.035 51.0371 113.429 51.0371C113.879 51.0371 114.274 51.1261 114.614 51.3061C114.954 51.4841 115.236 51.7191 115.461 52.0081C115.685 52.2971 115.855 52.6271 115.97 52.9991C116.085 53.3701 116.142 53.7491 116.142 54.1351C116.142 54.5211 116.085 54.8981 115.97 55.2711C115.855 55.6431 115.685 55.9731 115.461 56.2621C115.236 56.5511 114.954 56.7851 114.614 56.9641C114.274 57.1441 113.879 57.2321 113.429 57.2321C113.017 57.2321 112.705 57.1641 112.494 57.0261C112.282 56.8891 112.103 56.7051 111.957 56.4761V60.5511H112.7V60.7711H109.148V60.5511H109.891Z" fill="white"/>
<path fill-rule="evenodd" clip-rule="evenodd" d="M120.879 54.6991C120.879 55.0761 120.888 55.4061 120.906 55.6901C120.925 55.9751 120.966 56.2141 121.03 56.4061C121.095 56.5991 121.191 56.7441 121.319 56.8401C121.448 56.9361 121.622 56.9841 121.843 56.9841C122.063 56.9841 122.237 56.9361 122.366 56.8401C122.494 56.7441 122.591 56.5991 122.655 56.4061C122.719 56.2141 122.761 55.9751 122.779 55.6901C122.797 55.4061 122.807 55.0761 122.807 54.6991V53.6251C122.807 53.2581 122.797 52.9281 122.779 52.6341C122.761 52.3401 122.719 52.0951 122.655 51.8971C122.591 51.7001 122.494 51.5491 122.366 51.4431C122.237 51.3381 122.063 51.2851 121.843 51.2851C121.622 51.2851 121.448 51.3381 121.319 51.4431C121.191 51.5491 121.095 51.7001 121.03 51.8971C120.966 52.0951 120.925 52.3401 120.906 52.6341C120.888 52.9281 120.879 53.2581 120.879 53.6251V54.6991ZM118.938 52.9991C119.066 52.6271 119.256 52.2971 119.509 52.0081C119.761 51.7191 120.082 51.4841 120.473 51.3051C120.862 51.1261 121.319 51.0371 121.843 51.0371C122.366 51.0371 122.822 51.1261 123.213 51.3051C123.603 51.4841 123.924 51.7191 124.177 52.0081C124.429 52.2971 124.619 52.6271 124.748 52.9991C124.876 53.3701 124.941 53.7491 124.941 54.1351C124.941 54.5201 124.876 54.8981 124.748 55.2701C124.619 55.6421 124.429 55.9721 124.177 56.2611C123.924 56.5511 123.603 56.7851 123.213 56.9641C122.822 57.1431 122.366 57.2321 121.843 57.2321C121.319 57.2321 120.862 57.1431 120.473 56.9641C120.082 56.7851 119.761 56.5511 119.509 56.2611C119.256 55.9721 119.066 55.6421 118.938 55.2701C118.809 54.8981 118.745 54.5201 118.745 54.1351C118.745 53.7491 118.809 53.3701 118.938 52.9991V52.9991Z" fill="white"/>
<path fill-rule="evenodd" clip-rule="evenodd" d="M130.145 54.8094C130.145 55.2494 130.156 55.6004 130.179 55.8624C130.202 56.1234 130.239 56.3244 130.29 56.4614C130.339 56.5994 130.411 56.6914 130.502 56.7374C130.594 56.7834 130.709 56.8054 130.847 56.8054C130.966 56.8054 131.081 56.7734 131.191 56.7084C131.301 56.6454 131.407 56.5624 131.508 56.4614C131.609 56.3604 131.701 56.2524 131.784 56.1374C131.866 56.0234 131.935 55.9154 131.99 55.8144V52.2624C131.861 52.0334 131.703 51.8264 131.515 51.6424C131.327 51.4584 131.104 51.3674 130.847 51.3674C130.709 51.3674 130.597 51.3994 130.509 51.4634C130.422 51.5284 130.351 51.6374 130.296 51.7934C130.241 51.9504 130.202 52.1614 130.179 52.4274C130.156 52.6934 130.145 53.0284 130.145 53.4324V54.8094ZM131.26 47.9664L134.055 47.4434V56.8464H134.798V57.0674H131.99V56.3244C131.852 56.5164 131.662 56.7114 131.418 56.9094C131.175 57.1064 130.879 57.2054 130.531 57.2054C130.071 57.2054 129.669 57.1184 129.326 56.9434C128.981 56.7694 128.695 56.5374 128.465 56.2474C128.236 55.9584 128.063 55.6284 127.949 55.2564C127.833 54.8844 127.777 54.5064 127.777 54.1214C127.777 53.7354 127.833 53.3594 127.949 52.9924C128.063 52.6244 128.236 52.2964 128.465 52.0074C128.695 51.7184 128.981 51.4864 129.326 51.3124C129.669 51.1374 130.071 51.0504 130.531 51.0504C130.916 51.0504 131.228 51.1194 131.466 51.2564C131.706 51.3944 131.879 51.5694 131.99 51.7804V48.0484L131.26 48.1864V47.9664Z" fill="white"/>
<path fill-rule="evenodd" clip-rule="evenodd" d="M140.064 51.4081C139.913 51.4911 139.789 51.6241 139.692 51.8071C139.596 51.9911 139.527 52.2271 139.486 52.5161C139.444 52.8051 139.423 53.1621 139.423 53.5841V54.6851C139.423 55.1171 139.444 55.4741 139.486 55.7601C139.527 56.0441 139.598 56.2731 139.699 56.4481C139.8 56.6221 139.931 56.7461 140.091 56.8191C140.251 56.8931 140.452 56.9291 140.69 56.9291C140.947 56.9291 141.198 56.8871 141.441 56.7991C141.684 56.7121 141.907 56.5931 142.109 56.4411C142.31 56.2891 142.485 56.1171 142.631 55.9251C142.779 55.7311 142.888 55.5251 142.962 55.3041C142.99 55.2141 143.036 55.1671 143.1 55.1671C143.182 55.1671 143.224 55.2181 143.224 55.3181C143.224 55.3551 143.219 55.3831 143.21 55.4011C143.026 55.9431 142.698 56.3841 142.225 56.7231C141.752 57.0621 141.163 57.2321 140.457 57.2321C139.933 57.2321 139.476 57.1431 139.086 56.9641C138.696 56.7851 138.371 56.5511 138.109 56.2621C137.847 55.9721 137.652 55.6421 137.524 55.2701C137.395 54.8981 137.331 54.5201 137.331 54.1351C137.331 53.7491 137.4 53.3701 137.538 52.9991C137.675 52.6271 137.879 52.2971 138.15 52.0081C138.42 51.7191 138.749 51.4841 139.134 51.3051C139.52 51.1261 139.96 51.0371 140.457 51.0371C140.943 51.0371 141.339 51.0801 141.647 51.1681C141.955 51.2551 142.193 51.3671 142.363 51.5051C142.533 51.6421 142.65 51.7901 142.714 51.9451C142.779 52.1011 142.811 52.2481 142.811 52.3861C142.811 52.6251 142.737 52.8311 142.59 53.0061C142.444 53.1801 142.228 53.2671 141.943 53.2671C141.677 53.2671 141.468 53.1891 141.317 53.0331C141.166 52.8771 141.089 52.6931 141.089 52.4821C141.089 52.2441 141.161 52.0511 141.303 51.9041C141.445 51.7581 141.618 51.6701 141.819 51.6421C141.819 51.5881 141.711 51.5141 141.496 51.4221C141.28 51.3311 140.994 51.2851 140.635 51.2851C140.406 51.2851 140.215 51.3261 140.064 51.4081" fill="white"/>
<path fill-rule="evenodd" clip-rule="evenodd" d="M148.787 53.6938C148.41 53.6938 148.141 53.8498 147.981 54.1618C147.82 54.4738 147.74 54.8818 147.74 55.3868C147.74 55.9008 147.788 56.2708 147.885 56.4958C147.981 56.7198 148.144 56.8328 148.374 56.8328C148.429 56.8328 148.512 56.8098 148.621 56.7638C148.731 56.7178 148.842 56.6608 148.952 56.5918C149.062 56.5228 149.156 56.4448 149.234 56.3578C149.312 56.2708 149.351 56.1858 149.351 56.1028V53.6938H148.787ZM149.853 51.1538C150.216 51.2218 150.515 51.3398 150.749 51.5048C150.982 51.6698 151.152 51.8848 151.258 52.1518C151.363 52.4178 151.416 52.7438 151.416 53.1298V56.0198C151.416 56.2408 151.441 56.4128 151.492 56.5368C151.543 56.6608 151.659 56.7228 151.844 56.7228C151.999 56.7228 152.107 56.6728 152.167 56.5708C152.226 56.4698 152.27 56.3508 152.298 56.2138C152.307 56.1308 152.344 56.0898 152.408 56.0898C152.463 56.0898 152.49 56.1268 152.49 56.1998C152.49 56.2998 152.475 56.4108 152.442 56.5298C152.41 56.6488 152.341 56.7588 152.235 56.8608C152.13 56.9618 151.981 57.0478 151.788 57.1218C151.596 57.1958 151.334 57.2318 151.004 57.2318C150.535 57.2318 150.178 57.1608 149.93 57.0188C149.682 56.8768 149.516 56.7088 149.433 56.5158C149.36 56.5898 149.27 56.6678 149.165 56.7508C149.059 56.8328 148.938 56.9108 148.801 56.9838C148.663 57.0578 148.505 57.1178 148.325 57.1638C148.146 57.2098 147.942 57.2318 147.713 57.2318C147.364 57.2318 147.058 57.1838 146.797 57.0878C146.535 56.9908 146.317 56.8608 146.143 56.6948C145.969 56.5298 145.838 56.3358 145.751 56.1098C145.663 55.8848 145.62 55.6488 145.62 55.4008C145.62 55.1628 145.666 54.9258 145.758 54.6918C145.849 54.4578 145.989 54.2498 146.178 54.0648C146.365 53.8818 146.599 53.7328 146.88 53.6178C147.16 53.5038 147.487 53.4458 147.864 53.4458H149.351V52.3438C149.351 52.0138 149.301 51.7568 149.2 51.5738C149.099 51.3898 148.878 51.2978 148.539 51.2978C148.162 51.2978 147.905 51.3238 147.767 51.3738C147.63 51.4238 147.561 51.4858 147.561 51.5588C147.561 51.6148 147.594 51.6608 147.657 51.6968C147.832 51.8068 147.919 51.9768 147.919 52.2068C147.919 52.2618 147.91 52.3308 147.891 52.4138C147.873 52.4958 147.837 52.5718 147.781 52.6398C147.726 52.7098 147.65 52.7688 147.555 52.8198C147.458 52.8698 147.332 52.8948 147.176 52.8948C146.983 52.8948 146.81 52.8378 146.659 52.7228C146.508 52.6078 146.433 52.4178 146.433 52.1518C146.433 51.7848 146.63 51.5088 147.024 51.3258C147.419 51.1418 147.919 51.0498 148.525 51.0498C149.048 51.0498 149.491 51.0848 149.853 51.1538V51.1538Z" fill="white"/>
<path fill-rule="evenodd" clip-rule="evenodd" d="M159.237 51.0368C159.246 51.0178 159.273 51.0098 159.319 51.0098C159.365 51.0098 159.388 51.0508 159.388 51.1328V52.4278C159.388 52.5838 159.356 52.6608 159.292 52.6608C159.227 52.6608 159.181 52.5928 159.154 52.4548C159.108 52.2708 159.032 52.1078 158.926 51.9658C158.821 51.8238 158.695 51.7018 158.549 51.6008C158.401 51.4998 158.246 51.4218 158.08 51.3668C157.915 51.3118 157.755 51.2848 157.598 51.2848C157.175 51.2848 156.866 51.3788 156.669 51.5668C156.471 51.7548 156.373 51.9588 156.373 52.1798C156.373 52.4458 156.478 52.6518 156.689 52.7988C156.9 52.9458 157.254 53.0188 157.75 53.0188C158.163 53.0188 158.505 53.0718 158.775 53.1778C159.046 53.2828 159.261 53.4278 159.423 53.6108C159.583 53.7948 159.696 54.0058 159.759 54.2448C159.824 54.4828 159.856 54.7358 159.856 55.0018C159.856 55.2768 159.808 55.5488 159.712 55.8138C159.615 56.0808 159.47 56.3188 159.278 56.5298C159.086 56.7408 158.841 56.9108 158.549 57.0398C158.255 57.1678 157.906 57.2318 157.502 57.2318C157.097 57.2318 156.745 57.1658 156.442 57.0328C156.138 56.8998 155.9 56.7688 155.725 56.6408L155.45 57.0258C155.432 57.0618 155.409 57.0948 155.382 57.1218C155.354 57.1498 155.322 57.1638 155.285 57.1638C155.23 57.1638 155.203 57.1268 155.203 57.0538V55.2768C155.203 55.1488 155.239 55.0848 155.312 55.0848C155.377 55.0848 155.432 55.1668 155.478 55.3328C155.662 55.9298 155.921 56.3528 156.256 56.6058C156.591 56.8578 157.007 56.9838 157.502 56.9838C157.961 56.9838 158.287 56.8888 158.479 56.6948C158.673 56.5028 158.768 56.2918 158.768 56.0618C158.768 55.9608 158.755 55.8548 158.727 55.7458C158.7 55.6358 158.637 55.5338 158.542 55.4418C158.445 55.3498 158.302 55.2748 158.115 55.2158C157.926 55.1558 157.676 55.1258 157.364 55.1258C157.015 55.1258 156.708 55.0728 156.442 54.9678C156.175 54.8618 155.951 54.7178 155.767 54.5338C155.584 54.3498 155.443 54.1348 155.347 53.8868C155.251 53.6388 155.203 53.3778 155.203 53.1018C155.203 52.8458 155.251 52.5928 155.347 52.3448C155.443 52.0968 155.588 51.8768 155.781 51.6828C155.973 51.4908 156.221 51.3348 156.524 51.2158C156.827 51.0968 157.185 51.0368 157.598 51.0368C157.91 51.0368 158.176 51.0778 158.397 51.1608C158.617 51.2428 158.787 51.3348 158.906 51.4358L159.195 51.0918C159.214 51.0728 159.227 51.0558 159.237 51.0368" fill="white"/>
<path fill-rule="evenodd" clip-rule="evenodd" d="M165.322 51.147H166.355V51.367H165.322V54.864C165.322 55.552 165.384 56.048 165.509 56.351C165.632 56.654 165.868 56.805 166.218 56.805C166.428 56.805 166.614 56.727 166.775 56.571C166.935 56.416 167.039 56.2 167.085 55.924C167.093 55.869 167.112 55.828 167.139 55.8C167.167 55.773 167.195 55.759 167.222 55.759C167.304 55.759 167.346 55.809 167.346 55.911V55.952C167.272 56.346 167.107 56.659 166.85 56.888C166.593 57.118 166.185 57.232 165.625 57.232C165.303 57.232 164.999 57.191 164.71 57.108C164.421 57.026 164.168 56.886 163.952 56.688C163.736 56.491 163.567 56.227 163.443 55.897C163.319 55.566 163.257 55.149 163.257 54.644V51.367H162.513V51.147H163.257C163.45 51.083 163.644 50.991 163.843 50.872C164.04 50.751 164.223 50.6 164.393 50.417C164.562 50.233 164.714 50.01 164.847 49.749C164.98 49.488 165.074 49.182 165.13 48.834H165.322V51.147Z" fill="white"/>
</svg>
